<svg width="300" height="300" viewBox="0 0 300 300" fill="none" xmlns="http://www.w3.org/2000/svg">
<path fill-rule="evenodd" clip-rule="evenodd" d="M150 300C232.843 300 300 232.843 300 150C300 67.1573 232.843 0 150 0C67.1573 0 0 67.1573 0 150C0 232.843 67.1573 300 150 300Z" fill="black"/>
<path fill-rule="evenodd" clip-rule="evenodd" d="M188.415 144.1L129 182.2L129 144L129 106L188.415 144.1Z" fill="white"/>
<path d="M270.5 150.04C270.5 150.027 270.5 150.013 270.5 150H270.499C270.472 146.848 267.909 144.3 264.75 144.3C261.591 144.3 259.028 146.848 259.001 150H259C259 210.199 210.199 259 150 259C89.801 259 41 210.199 41 150H40.999C40.972 146.848 38.409 144.3 35.25 144.3C32.091 144.3 29.528 146.848 29.501 150H29.5C29.5 150.013 29.5 150.027 29.5 150.04C29.5 150.043 29.5 150.047 29.5 150.05C29.5 150.056 29.5 150.061 29.5 150.067C29.536 216.586 83.472 270.5 150 270.5C216.528 270.5 270.464 216.586 270.5 150.067C270.5 150.061 270.5 150.056 270.5 150.05C270.5 150.047 270.5 150.043 270.5 150.04Z" fill="white"/>
</svg>
