<svg width="120" height="120" viewBox="0 0 120 120" fill="none" xmlns="http://www.w3.org/2000/svg">
<g opacity="0.3">
<path fill-rule="evenodd" clip-rule="evenodd" d="M60 120C93.1371 120 120 93.1371 120 60C120 26.8629 93.1371 0 60 0C26.8629 0 0 26.8629 0 60C0 93.1371 26.8629 120 60 120ZM75.3669 57.6365L51.6011 72.8765V57.5965V42.3965L75.3669 57.6365ZM108.2 60.0085V60.0245V60.0285V60.0353C108.185 86.6429 86.6111 108.209 59.9999 108.209C33.3887 108.209 11.8143 86.6429 11.7999 60.0353V60.0285V60.0245V60.0085H11.8003C11.8111 58.7477 12.8363 57.7285 14.0999 57.7285C15.3635 57.7285 16.3887 58.7477 16.3995 60.0085H16.3999C16.3999 84.0881 35.9203 103.609 59.9999 103.609C84.0795 103.609 103.6 84.0881 103.6 60.0085H103.6C103.611 58.7477 104.636 57.7285 105.9 57.7285C107.163 57.7285 108.189 58.7477 108.199 60.0085H108.2Z" fill="#656565"/>
</g>
</svg>
