<svg width="12" height="16" viewBox="0 0 12 16" fill="none" xmlns="http://www.w3.org/2000/svg">
<path d="M1.26018 13.532C1.26018 14.4004 1.9707 15.1109 2.83912 15.1109H9.15491C10.0233 15.1109 10.7339 14.4004 10.7339 13.532V5.63723C10.7339 4.76881 10.0233 4.05829 9.15491 4.05829H2.83912C1.9707 4.05829 1.26018 4.76881 1.26018 5.63723V13.532ZM10.7339 1.68986H8.76018L8.19965 1.12934C8.05754 0.987233 7.85228 0.900391 7.64702 0.900391H4.34702C4.14176 0.900391 3.93649 0.987233 3.79439 1.12934L3.23386 1.68986H1.26018C0.825966 1.68986 0.470703 2.04513 0.470703 2.47934C0.470703 2.91355 0.825966 3.26881 1.26018 3.26881H10.7339C11.1681 3.26881 11.5233 2.91355 11.5233 2.47934C11.5233 2.04513 11.1681 1.68986 10.7339 1.68986Z" fill="black" fill-opacity="0.64"/>
</svg>
