<svg width="30" height="30" viewBox="0 0 30 30" fill="none" xmlns="http://www.w3.org/2000/svg">
<circle cx="15" cy="15" r="15" fill="#E9E9E9"/>
<path d="M10.2597 20.532C10.2597 21.4004 10.9702 22.1109 11.8386 22.1109H18.1544C19.0228 22.1109 19.7334 21.4004 19.7334 20.532V12.6372C19.7334 11.7688 19.0228 11.0583 18.1544 11.0583H11.8386C10.9702 11.0583 10.2597 11.7688 10.2597 12.6372V20.532ZM19.7334 8.68986H17.7597L17.1992 8.12934C17.0571 7.98723 16.8518 7.90039 16.6465 7.90039H13.3465C13.1413 7.90039 12.936 7.98723 12.7939 8.12934L12.2334 8.68986H10.2597C9.82548 8.68986 9.47021 9.04513 9.47021 9.47934C9.47021 9.91355 9.82548 10.2688 10.2597 10.2688H19.7334C20.1676 10.2688 20.5228 9.91355 20.5228 9.47934C20.5228 9.04513 20.1676 8.68986 19.7334 8.68986Z" fill="#ABABAB"/>
</svg>
