<svg width="30" height="30" viewBox="0 0 30 30" fill="none" xmlns="http://www.w3.org/2000/svg">
<circle cx="15" cy="15" r="15" fill="#E9E9E9"/>
<path opacity="0.64" fill-rule="evenodd" clip-rule="evenodd" d="M16.4049 7C16.5375 7 16.6646 7.05268 16.7584 7.14645L20.8536 11.2416C20.9473 11.3354 21 11.4625 21 11.5951V22.5C21 22.7761 20.7761 23 20.5 23H9.5C9.22386 23 9 22.7761 9 22.5V7.5C9 7.22386 9.22386 7 9.5 7H16.4049ZM16.1537 8.36535C16.0277 8.23936 15.8122 8.32859 15.8122 8.50677V11.9884C15.8122 12.0988 15.9018 12.1884 16.0122 12.1884H19.4938C19.672 12.1884 19.7612 11.9729 19.6352 11.8469L16.1537 8.36535Z" fill="#ABABAB"/>
</svg>
