<svg width="30" height="30" viewBox="0 0 30 30" fill="none" xmlns="http://www.w3.org/2000/svg">
<circle cx="15" cy="15" r="15" fill="#E9E9E9"/>
<path d="M21.3287 8.67145C19.7664 7.10952 17.2336 7.10952 15.6717 8.67145L13.4397 10.9027C13.6164 10.8834 13.7949 10.8752 13.9744 10.8752C14.5393 10.8752 15.0885 10.9649 15.6085 11.1379L16.8733 9.87354C17.3077 9.43866 17.8854 9.1997 18.4998 9.1997C19.1141 9.1997 19.6918 9.43866 20.1262 9.87354C20.5607 10.3075 20.7995 10.8843 20.7995 11.4996C20.7995 12.1139 20.5607 12.6916 20.1262 13.1256L17.6516 15.6003C17.2172 16.0352 16.6395 16.2741 16.0252 16.2741C15.4099 16.2741 14.8331 16.0352 14.3983 15.6003C14.1868 15.3897 14.022 15.1443 13.9085 14.877C13.6265 14.8925 13.3629 15.0097 13.1614 15.2111L12.5023 15.8712C12.6826 16.2053 12.9142 16.5203 13.1962 16.8033C14.7581 18.3653 17.2913 18.3653 18.8536 16.8033L21.3287 14.3276C22.8901 12.7658 22.8901 10.2334 21.3287 8.67145Z" fill="#ABABAB"/>
<path d="M16.052 19.1249C15.4862 19.1249 14.9314 19.0334 14.3995 18.853L13.126 20.1266C12.6921 20.5615 12.1144 20.8004 11.5001 20.8004C10.8858 20.8004 10.309 20.5615 9.87412 20.1266C9.43925 19.6926 9.2003 19.1149 9.2003 18.5006C9.2003 17.8862 9.43925 17.3085 9.87412 16.8737L12.3488 14.399C12.7836 13.965 13.3604 13.726 13.9748 13.726C14.59 13.726 15.1668 13.965 15.6011 14.399C15.8127 14.6104 15.9778 14.8558 16.0919 15.1231C16.3748 15.1085 16.6389 14.9904 16.8403 14.789L17.4986 14.1298C17.3182 13.7947 17.0861 13.4797 16.8037 13.1968C15.2418 11.6349 12.7086 11.6349 11.1467 13.1968L8.67209 15.6725C7.1093 17.2345 7.1093 19.7668 8.67209 21.3296C10.234 22.8916 12.7663 22.8916 14.3281 21.3296L16.5565 19.1012C16.3903 19.1167 16.2223 19.125 16.0529 19.125L16.052 19.1249Z" fill="#ABABAB"/>
</svg>
