<svg width="12" height="16" viewBox="0 0 12 16" fill="none" xmlns="http://www.w3.org/2000/svg">
<path d="M1.25969 13.53C1.25969 14.3984 1.97021 15.109 2.83864 15.109H9.15442C10.0228 15.109 10.7334 14.3984 10.7334 13.53V5.63528C10.7334 4.76686 10.0228 4.05633 9.15442 4.05633H2.83864C1.97021 4.05633 1.25969 4.76686 1.25969 5.63528V13.53ZM10.7334 1.68791H8.75969L8.19916 1.12738C8.05706 0.98528 7.85179 0.898438 7.64653 0.898438H4.34653C4.14127 0.898438 3.936 0.98528 3.7939 1.12738L3.23337 1.68791H1.25969C0.825478 1.68791 0.470215 2.04317 0.470215 2.47739C0.470215 2.9116 0.825478 3.26686 1.25969 3.26686H10.7334C11.1676 3.26686 11.5228 2.9116 11.5228 2.47739C11.5228 2.04317 11.1676 1.68791 10.7334 1.68791Z" fill="#ABABAB"/>
</svg>
