<svg width="16" height="16" viewBox="0 0 16 16" fill="none" xmlns="http://www.w3.org/2000/svg">
<g opacity="0.3">
<path d="M14.3284 1.67145C12.7661 0.109516 10.2333 0.109516 8.67144 1.67145L6.4394 3.90265C6.6161 3.88343 6.79464 3.87517 6.97409 3.87517C7.53895 3.87517 8.08823 3.96491 8.60824 4.13792L9.87303 2.87354C10.3074 2.43866 10.8851 2.1997 11.4994 2.1997C12.1138 2.1997 12.6915 2.43866 13.1259 2.87354C13.5604 3.30751 13.7992 3.88431 13.7992 4.49955C13.7992 5.11389 13.5604 5.6916 13.1259 6.12557L10.6513 8.6003C10.2169 9.03521 9.63918 9.27411 9.02486 9.27411C8.4096 9.27411 7.83284 9.03521 7.398 8.6003C7.1865 8.3897 7.02173 8.14432 6.9082 7.87698C6.6262 7.89253 6.36255 8.00973 6.16113 8.21113L5.50195 8.87119C5.68231 9.20534 5.91394 9.5203 6.19593 9.80327C7.75781 11.3653 10.291 11.3653 11.8533 9.80327L14.3284 7.32763C15.8898 5.76578 15.8898 3.23339 14.3284 1.67145Z" fill="#121212"/>
<path d="M9.052 12.1249C8.4862 12.1249 7.93142 12.0334 7.39954 11.853L6.12605 13.1266C5.69209 13.5615 5.11442 13.8004 4.5001 13.8004C3.88578 13.8004 3.30902 13.5615 2.87412 13.1266C2.43925 12.6926 2.2003 12.1149 2.2003 11.5006C2.2003 10.8862 2.43925 10.3085 2.87412 9.87367L5.34877 7.39896C5.78364 6.96499 6.36043 6.72603 6.97475 6.72603C7.58998 6.72603 8.16677 6.96499 8.60114 7.39896C8.81267 7.61044 8.97782 7.85582 9.09188 8.12314C9.37478 8.10849 9.6389 7.99038 9.84032 7.78899L10.4986 7.1298C10.3182 6.79468 10.0861 6.47975 9.8037 6.19684C8.24183 4.63491 5.70861 4.63491 4.14674 6.19684L1.67209 8.67248C0.109305 10.2345 0.109305 12.7668 1.67209 14.3296C3.23396 15.8916 5.7663 15.8916 7.32814 14.3296L9.55649 12.1012C9.39034 12.1167 9.22234 12.125 9.05294 12.125L9.052 12.1249Z" fill="#121212"/>
</g>
</svg>
