<svg width="120" height="120" viewBox="0 0 120 120" fill="none" xmlns="http://www.w3.org/2000/svg">
<path fill-rule="evenodd" clip-rule="evenodd" d="M60 120C93.1371 120 120 93.1371 120 60C120 26.8629 93.1371 0 60 0C26.8629 0 0 26.8629 0 60C0 93.1371 26.8629 120 60 120Z" fill="black"/>
<path fill-rule="evenodd" clip-rule="evenodd" d="M75.3667 57.6365L51.6009 72.8765L51.6009 57.5965L51.6009 42.3965L75.3667 57.6365Z" fill="white"/>
<path d="M108.2 60.0245C108.2 60.0193 108.2 60.0137 108.2 60.0085H108.199C108.189 58.7477 107.163 57.7285 105.9 57.7285C104.636 57.7285 103.611 58.7477 103.6 60.0085H103.6C103.6 84.0881 84.0794 103.609 59.9998 103.609C35.9202 103.609 16.3998 84.0881 16.3998 60.0085H16.3994C16.3886 58.7477 15.3634 57.7285 14.0998 57.7285C12.8362 57.7285 11.811 58.7477 11.8002 60.0085H11.7998C11.7998 60.0137 11.7998 60.0193 11.7998 60.0245C11.7998 60.0257 11.7998 60.0273 11.7998 60.0285C11.7998 60.0309 11.7998 60.0329 11.7998 60.0353C11.8142 86.6429 33.3886 108.209 59.9998 108.209C86.611 108.209 108.185 86.6429 108.2 60.0353C108.2 60.0329 108.2 60.0309 108.2 60.0285C108.2 60.0273 108.2 60.0257 108.2 60.0245Z" fill="white"/>
</svg>
