<svg width="3000" height="3000" viewBox="0 0 3000 3000" fill="none" xmlns="http://www.w3.org/2000/svg">
<path fill-rule="evenodd" clip-rule="evenodd" d="M1500 3000C2328.43 3000 3000 2328.43 3000 1500C3000 671.573 2328.43 0 1500 0C671.573 0 0 671.573 0 1500C0 2328.43 671.573 3000 1500 3000Z" fill="black"/>
<path fill-rule="evenodd" clip-rule="evenodd" d="M1500 545L1881 1139.14L1500 1735L1119 1139.14L1500 545Z" fill="white"/>
<path d="M2705 1500.4C2705 1500.27 2705 1500.13 2705 1500H2704.99C2704.72 1468.48 2679.09 1443 2647.5 1443C2615.91 1443 2590.28 1468.48 2590.01 1500H2590C2590 2101.99 2101.99 2590 1500 2590C898.01 2590 410 2101.99 410 1500H409.99C409.72 1468.48 384.09 1443 352.5 1443C320.91 1443 295.28 1468.48 295.01 1500H295C295 1500.13 295 1500.27 295 1500.4C295 1500.43 295 1500.47 295 1500.5C295 1500.56 295 1500.61 295 1500.67C295.36 2165.86 834.72 2705 1500 2705C2165.28 2705 2704.64 2165.86 2705 1500.67C2705 1500.61 2705 1500.56 2705 1500.5C2705 1500.47 2705 1500.43 2705 1500.4Z" fill="white"/>
</svg>
