<svg width="137" height="109" viewBox="0 0 137 109" fill="none" xmlns="http://www.w3.org/2000/svg">
<path opacity="0.3" fill-rule="evenodd" clip-rule="evenodd" d="M0.5 2.99999C0.5 1.34314 1.84315 0 3.5 0H112.894C114.551 0 115.894 1.34315 115.894 3V76.5756C115.894 78.2324 114.551 79.5756 112.894 79.5756H3.5C1.84314 79.5756 0.5 78.2324 0.5 76.5756V2.99999ZM8.61383 17.1835C8.61383 16.1846 9.42354 15.3749 10.4224 15.3749H105.972C106.971 15.3749 107.781 16.1846 107.781 17.1835C107.781 18.1823 106.971 18.992 105.972 18.992H10.4224C9.42354 18.992 8.61383 18.1823 8.61383 17.1835ZM11.3184 10.3939C12.8121 10.3939 14.0229 9.1793 14.0229 7.68106C14.0229 6.18282 12.8121 4.96825 11.3184 4.96825C9.8247 4.96825 8.61383 6.18282 8.61383 7.68106C8.61383 9.1793 9.8247 10.3939 11.3184 10.3939ZM32.0528 7.68106C32.0528 9.1793 30.842 10.3939 29.3483 10.3939C27.8546 10.3939 26.6437 9.1793 26.6437 7.68106C26.6437 6.18282 27.8546 4.96825 29.3483 4.96825C30.842 4.96825 32.0528 6.18282 32.0528 7.68106ZM20.3331 10.3939C21.8268 10.3939 23.0376 9.1793 23.0376 7.68106C23.0376 6.18282 21.8268 4.96825 20.3331 4.96825C18.8394 4.96825 17.6285 6.18282 17.6285 7.68106C17.6285 9.1793 18.8394 10.3939 20.3331 10.3939Z" fill="white"/>
<rect x="68.5" y="39.793" width="68" height="68.2077" rx="3" fill="#232323"/>
<g opacity="0.3">
<mask id="path-3-inside-1" fill="white">
<rect x="68.5" y="39.793" width="68" height="68.2077" rx="3"/>
</mask>
<rect x="68.5" y="39.793" width="68" height="68.2077" rx="3" stroke="white" stroke-width="8" mask="url(#path-3-inside-1)"/>
<path fill-rule="evenodd" clip-rule="evenodd" d="M68.5 90.182L78.7701 83.4328C79.7123 82.8136 80.9221 82.775 81.9019 83.3328L95.7865 91.2372C96.9621 91.9065 98.4402 91.7062 99.3953 90.7482L117.793 72.294C118.986 71.0972 120.932 71.1217 122.095 72.3482L136.5 87.5445V105.001C136.5 106.658 135.157 108.001 133.5 108.001H71.5C69.8431 108.001 68.5 106.658 68.5 105.001V90.182Z" fill="white"/>
<ellipse cx="109.111" cy="59.684" rx="6.61111" ry="6.6313" fill="white"/>
</g>
</svg>
